name 900006_25.mot
datacolumns 153
datarows 4
range 0.80833334 0.83333337
endheader

                time	           pelvis_tx	           pelvis_ty	           pelvis_tz	         pelvis_tilt	         pelvis_list	     pelvis_rotation	       hip_flexion_r	     hip_adduction_r	      hip_rotation_r	        knee_angle_r	       ankle_angle_r	    subtalar_angle_r	         mtp_angle_r	       hip_flexion_l	     hip_adduction_l	      hip_rotation_l	        knee_angle_l	       ankle_angle_l	    subtalar_angle_l	         mtp_angle_l	    lumbar_extension	      lumbar_bending	     lumbar_rotation	     ground_force_vx	     ground_force_vy	     ground_force_vz	     ground_force_px	     ground_force_py	     ground_force_pz	     ground_force_vx	     ground_force_vy	     ground_force_vz	     ground_force_px	     ground_force_py	     ground_force_pz	     ground_torque_x	     ground_torque_y	     ground_torque_z	     ground_torque_x	     ground_torque_y	     ground_torque_z	    ground_marker_px	    ground_marker_py	    ground_marker_pz	    ground_marker_px	    ground_marker_py	    ground_marker_pz	    ground_marker_px	    ground_marker_py	    ground_marker_pz	    ground_marker_px	    ground_marker_py	    ground_marker_pz	    ground_marker_px	    ground_marker_py	    ground_marker_pz	    ground_marker_px	    ground_marker_py	    ground_marker_pz	    ground_marker_px	    ground_marker_py	    ground_marker_pz	    ground_marker_px	    ground_marker_py	    ground_marker_pz	    ground_marker_px	    ground_marker_py	    ground_marker_pz	    ground_marker_px	    ground_marker_py	    ground_marker_pz	    ground_marker_px	    ground_marker_py	    ground_marker_pz	    ground_marker_px	    ground_marker_py	    ground_marker_pz	    ground_marker_px	    ground_marker_py	    ground_marker_pz	    ground_marker_px	    ground_marker_py	    ground_marker_pz	    ground_marker_px	    ground_marker_py	    ground_marker_pz	    ground_marker_px	    ground_marker_py	    ground_marker_pz	    ground_marker_px	    ground_marker_py	    ground_marker_pz	    ground_marker_px	    ground_marker_py	    ground_marker_pz	    ground_marker_px	    ground_marker_py	    ground_marker_pz	    ground_marker_px	    ground_marker_py	    ground_marker_pz	    ground_marker_px	    ground_marker_py	    ground_marker_pz	    ground_marker_px	    ground_marker_py	    ground_marker_pz	    ground_marker_px	    ground_marker_py	    ground_marker_pz	    ground_marker_px	    ground_marker_py	    ground_marker_pz	    ground_marker_px	    ground_marker_py	    ground_marker_pz	    ground_marker_px	    ground_marker_py	    ground_marker_pz	    ground_marker_px	    ground_marker_py	    ground_marker_pz	    ground_marker_px	    ground_marker_py	    ground_marker_pz	    ground_marker_px	    ground_marker_py	    ground_marker_pz	    ground_marker_px	    ground_marker_py	    ground_marker_pz	    ground_marker_px	    ground_marker_py	    ground_marker_pz	    ground_marker_px	    ground_marker_py	    ground_marker_pz	    ground_marker_px	    ground_marker_py	    ground_marker_pz	    ground_marker_px	    ground_marker_py	    ground_marker_pz	    ground_marker_px	    ground_marker_py	    ground_marker_pz	    ground_marker_px	    ground_marker_py	    ground_marker_pz	    ground_marker_px	    ground_marker_py	    ground_marker_pz	
          0.80833334	         -1.66778278	          0.82649791	          0.27405465	          3.02418804	         -1.42593956	         -2.24708343	         21.49415588	          2.80991006	         -0.14858028	        -21.59835625	         -1.13664746	          0.00000000	          0.00000000	        -14.52376461	         -0.73561853	         -6.04039288	        -24.05894852	          9.32934856	          0.00000000	          0.00000000	         -3.36011314	          5.80636501	         -2.76904058	        -37.52981642	        254.10588316	         -3.91969751	         -1.58619324	          0.00000000	          0.33118958	         42.02215051	        220.18692958	          0.91780055	         -1.91657202	          0.00000000	          0.21516132	          0.00000000	         -0.42488702	          0.00000000	          0.00000000	         -0.14771159	          0.00000000	         -1.70150292	          0.75359017	          0.26698267	         -1.71136665	          0.75218362	          0.32353938	         -1.69163918	          0.75499672	          0.21042597	         -1.62183356	          0.41334876	          0.33846512	         -1.82196403	          0.42466211	          0.20983621	         -1.57616794	          0.06470900	          0.33182526	         -2.01649022	          0.11308729	          0.20446298	         -1.66778278	          0.82649791	          0.27405465	         -1.67161369	          0.82987028	          0.38386342	         -1.66395187	          0.82312548	          0.16424590	         -1.85108626	          0.85628086	          0.30231467	         -1.84283495	          0.85350186	          0.25309661	         -1.59585631	          0.42205235	          0.39807165	         -1.81077492	          0.40539968	          0.15170631	         -1.60944247	          0.41852236	          0.27457967	         -1.79616129	          0.41014194	          0.27812508	         -1.58286047	          0.06335412	          0.36869836	         -2.02183270	          0.11729991	          0.16860271	         -1.57024252	          0.05960303	          0.29885733	         -2.02066183	          0.11603000	          0.23792158	         -1.68440700	          1.17807269	          0.27281642	         -1.67331231	          1.07687056	          0.26401907	         -1.79410684	          1.24605155	          0.27378920	         -1.49307919	          0.05008755	          0.35037643	         -1.94592285	          0.05524789	          0.20395543	         -1.53133988	          0.59489292	          0.36593968	         -1.66618168	          0.53243023	          0.13545124	         -1.59472835	          0.61070806	          0.40438583	         -1.67361844	          0.57935840	          0.20209134	         -1.58465779	          0.55379397	          0.39794850	         -1.69434190	          0.52566987	          0.21131654	         -1.46548069	          0.19453776	          0.36414906	         -1.96312177	          0.20325154	          0.08018212	         -1.53874159	          0.17145106	          0.34270898	         -1.96918297	          0.19532377	          0.15960515	         -1.68631184	          1.17436254	          0.32978994	         -1.67737520	          1.18198717	          0.22247700	
          0.81666666	         -1.66101420	          0.82731104	          0.27558336	          3.09098625	         -1.40583181	         -2.24452710	         21.00584412	          2.89158869	         -0.12406064	        -21.80446625	         -0.90924811	          0.00000000	          0.00000000	        -14.28011036	         -0.95426619	         -5.72061634	        -25.32143784	          8.17727661	          0.00000000	          0.00000000	         -3.25552654	          5.87355471	         -2.59489465	        -40.43457064	        276.94110305	         -5.45387142	         -1.58319946	          0.00000000	          0.33165112	         37.97825546	        192.53730514	         -0.49579895	         -1.91577869	          0.00000000	          0.21578001	          0.00000000	         -0.41869556	          0.00000000	          0.00000000	         -0.09516115	          0.00000000	         -1.69462776	          0.75439620	          0.26841909	         -1.70448995	          0.75293374	          0.32497463	         -1.68476558	          0.75585866	          0.21186355	         -1.61719286	          0.41318446	          0.33934164	         -1.81138945	          0.42266810	          0.20997229	         -1.57573330	          0.06458127	          0.33167142	         -2.01243567	          0.11642581	          0.20439832	         -1.66101420	          0.82731104	          0.27558336	         -1.66485381	          0.83064324	          0.38549691	         -1.65717459	          0.82397878	          0.16566981	         -1.84393454	          0.85689551	          0.30394158	         -1.83602083	          0.85401583	          0.25453979	         -1.59146988	          0.42186543	          0.39889264	         -1.80180299	          0.40532452	          0.15181118	         -1.60471833	          0.41761312	          0.27693477	         -1.78586268	          0.40875566	          0.27911052	         -1.58224571	          0.06320579	          0.36857599	         -2.01788020	          0.12087348	          0.16858172	         -1.56942344	          0.05895235	          0.29881397	         -2.01693273	          0.11946291	          0.23790108	         -1.67837596	          1.17900622	          0.27459186	         -1.66697896	          1.07785368	          0.26561400	         -1.78818107	          1.24656546	          0.27594399	         -1.49269509	          0.04932339	          0.35029888	         -1.94362676	          0.05573622	          0.20415571	         -1.52527440	          0.59431678	          0.36709428	         -1.65755618	          0.53327978	          0.13664131	         -1.58857417	          0.61038482	          0.40534434	         -1.66614830	          0.58006144	          0.20336901	         -1.57902861	          0.55379301	          0.39937726	         -1.68590021	          0.52609342	          0.21255428	         -1.46330810	          0.19309384	          0.36376899	         -1.95807707	          0.20643933	          0.08014032	         -1.53664386	          0.17050515	          0.34234962	         -1.96446323	          0.19841471	          0.15989432	         -1.68008101	          1.17521930	          0.33141339	         -1.67152441	          1.18300498	          0.22438891	
          0.82499999	         -1.65427816	          0.82812858	          0.27716410	          3.14764023	         -1.35325778	         -2.24978232	         20.49443817	          2.94967127	         -0.15844609	        -21.94234276	         -0.61859363	          0.00000000	          0.00000000	        -13.95502949	         -1.16787863	         -5.47561502	        -26.64847755	          6.83101225	          0.00000000	          0.00000000	         -3.04439950	          6.02168179	         -2.45171762	        -42.24996168	        298.51165425	         -6.87149441	         -1.58055872	          0.00000000	          0.33200159	         33.48009784	        164.22846474	         -1.54249031	         -1.91493054	          0.00000000	          0.21632372	          0.00000000	         -0.42594983	          0.00000000	          0.00000000	         -0.05179855	          0.00000000	         -1.68781340	          0.75521278	          0.26986709	         -1.69769526	          0.75366741	          0.32641700	         -1.67793155	          0.75675809	          0.21331719	         -1.61248064	          0.41332212	          0.34015787	         -1.80201983	          0.42411461	          0.21000661	         -1.57535887	          0.06450333	          0.33152980	         -2.00788093	          0.11982327	          0.20436744	         -1.65427816	          0.82812858	          0.27716410	         -1.65815139	          0.83136296	          0.38721964	         -1.65040493	          0.82489413	          0.16710855	         -1.83680403	          0.85753691	          0.30564114	         -1.82924032	          0.85457277	          0.25604481	         -1.58744740	          0.42163521	          0.39970398	         -1.79249728	          0.40526462	          0.15176114	         -1.60002530	          0.41794077	          0.27781007	         -1.77822125	          0.40838230	          0.27686393	         -1.58176291	          0.06309917	          0.36845222	         -2.01349282	          0.12454040	          0.16861127	         -1.56930923	          0.05898869	          0.29862106	         -2.01230001	          0.12293442	          0.23790987	         -1.67194211	          1.18003321	          0.27655563	         -1.66007221	          1.07896805	          0.26721367	         -1.78244102	          1.24736941	          0.27755722	         -1.49238312	          0.04876306	          0.35020950	         -1.94122767	          0.05619394	          0.20438281	         -1.51948464	          0.59359175	          0.36841679	         -1.64872372	          0.53426063	          0.13756210	         -1.58292127	          0.61024594	          0.40684739	         -1.65801048	          0.58125311	          0.20504306	         -1.57365108	          0.55355781	          0.40069067	         -1.67784119	          0.52675682	          0.21326831	         -1.46141088	          0.19172677	          0.36360377	         -1.95276630	          0.20981009	          0.08011336	         -1.53502750	          0.16992226	          0.34251830	         -1.95896757	          0.20163548	          0.16006958	         -1.67346537	          1.17607582	          0.33302099	         -1.66525757	          1.18420553	          0.22669724	
          0.83333337	         -1.64759350	          0.82894599	          0.27878255	          3.19147778	         -1.28262281	         -2.26018286	         19.96695709	          2.99914527	         -0.23591501	        -22.01430702	         -0.27829909	          0.00000000	          0.00000000	        -13.54676056	         -1.38895059	         -5.30585241	        -28.02786064	          5.28494596	          0.00000000	          0.00000000	         -3.02143073	          6.07259941	         -2.52197671	        -43.13016465	        317.90297721	         -8.08292374	         -1.57831360	          0.00000000	          0.33233203	         28.77970378	        136.00485684	         -2.14191525	         -1.91407727	          0.00000000	          0.21678391	          0.00000000	         -0.45494861	          0.00000000	          0.00000000	         -0.01039688	          0.00000000	         -1.68102717	          0.75599980	          0.27139765	         -1.69094682	          0.75435281	          0.32793808	         -1.67110753	          0.75764674	          0.21485721	         -1.60792363	          0.41352734	          0.34091517	         -1.79091263	          0.42399505	          0.20987637	         -1.57501912	          0.06446076	          0.33140010	         -2.00279069	          0.12323648	          0.20437223	         -1.64759350	          0.82894599	          0.27878255	         -1.65151525	          0.83205086	          0.38899577	         -1.64367163	          0.82584119	          0.16856930	         -1.82980084	          0.85822099	          0.30732456	         -1.82254696	          0.85518259	          0.25755578	         -1.58375037	          0.42139456	          0.40048799	         -1.78288567	          0.40522698	          0.15157975	         -1.59539831	          0.41896936	          0.27735233	         -1.76864028	          0.40633398	          0.27362087	         -1.58138847	          0.06302406	          0.36832729	         -2.00863361	          0.12826049	          0.16869490	         -1.56919181	          0.05924363	          0.29841247	         -2.00650954	          0.12652811	          0.23795073	         -1.66581857	          1.18102670	          0.27831814	         -1.65382564	          1.07999396	          0.26878443	         -1.77668822	          1.24843025	          0.27918807	         -1.49212790	          0.04837855	          0.35009542	         -1.93869793	          0.05662612	          0.20463341	         -1.51399493	          0.59276855	          0.36983636	         -1.63972116	          0.53537333	          0.13823070	         -1.57745862	          0.61001700	          0.40845206	         -1.65020621	          0.58218062	          0.20627433	         -1.56840742	          0.55293936	          0.40165567	         -1.66928720	          0.52729815	          0.21332024	         -1.45975876	          0.19044213	          0.36365613	         -1.94716251	          0.21334253	          0.08012859	         -1.53346717	          0.16960591	          0.34279385	         -1.95270383	          0.20473586	          0.15970689	         -1.66739857	          1.17697752	          0.33442360	         -1.65908790	          1.18528271	          0.22882819	
